<mxfile host="app.diagrams.net" modified="2024-07-04T17:14:01.610Z" agent="Mozilla/5.0 (Windows NT 10.0; Win64; x64) AppleWebKit/537.36 (KHTML, like Gecko) Chrome/126.0.0.0 Safari/537.36" etag="-6otTBeDmo73pU-fggA0" version="24.6.4" type="device">
  <diagram name="Page-1" id="zCJOOwEvWnlqeo-MKQPp">
    <mxGraphModel dx="1154" dy="532" grid="1" gridSize="10" guides="1" tooltips="1" connect="1" arrows="1" fold="1" page="1" pageScale="1" pageWidth="850" pageHeight="1100" math="0" shadow="0">
      <root>
        <mxCell id="0" />
        <mxCell id="1" parent="0" />
        <mxCell id="24lvV09j2VHUAjs1KWGv-1" value="Start" style="rounded=1;whiteSpace=wrap;html=1;" parent="1" vertex="1">
          <mxGeometry x="41.25" y="90" width="120" height="60" as="geometry" />
        </mxCell>
        <mxCell id="24lvV09j2VHUAjs1KWGv-2" value="End" style="rounded=1;whiteSpace=wrap;html=1;" parent="1" vertex="1">
          <mxGeometry x="40" y="560" width="120" height="60" as="geometry" />
        </mxCell>
        <mxCell id="24lvV09j2VHUAjs1KWGv-7" value="9. input float x. if x is positive print &quot;positive&quot; &lt;br&gt;if not then print &quot;zero or negative&quot;" style="text;html=1;align=center;verticalAlign=middle;whiteSpace=wrap;rounded=0;" parent="1" vertex="1">
          <mxGeometry x="70" y="30" width="390" height="30" as="geometry" />
        </mxCell>
        <mxCell id="2i2Ug3EKJSbQpZiKw1Ly-1" value="" style="edgeStyle=orthogonalEdgeStyle;rounded=0;orthogonalLoop=1;jettySize=auto;html=1;entryX=0.5;entryY=0;entryDx=0;entryDy=0;" edge="1" parent="1" source="24lvV09j2VHUAjs1KWGv-1" target="24lvV09j2VHUAjs1KWGv-24">
          <mxGeometry relative="1" as="geometry">
            <mxPoint x="100" y="150" as="sourcePoint" />
            <mxPoint x="100" y="550" as="targetPoint" />
          </mxGeometry>
        </mxCell>
        <mxCell id="24lvV09j2VHUAjs1KWGv-24" value="fname: str&lt;div&gt;&quot;what is your fname ?&quot;&lt;/div&gt;" style="shape=card;whiteSpace=wrap;html=1;" parent="1" vertex="1">
          <mxGeometry x="52.5" y="210" width="97.5" height="60" as="geometry" />
        </mxCell>
        <mxCell id="2i2Ug3EKJSbQpZiKw1Ly-2" value="" style="edgeStyle=orthogonalEdgeStyle;rounded=0;orthogonalLoop=1;jettySize=auto;html=1;entryX=0.5;entryY=0;entryDx=0;entryDy=0;" edge="1" parent="1" source="24lvV09j2VHUAjs1KWGv-24" target="24lvV09j2VHUAjs1KWGv-19">
          <mxGeometry relative="1" as="geometry">
            <mxPoint x="101" y="270" as="sourcePoint" />
            <mxPoint x="100" y="550" as="targetPoint" />
            <Array as="points" />
          </mxGeometry>
        </mxCell>
        <mxCell id="2i2Ug3EKJSbQpZiKw1Ly-3" value="" style="edgeStyle=orthogonalEdgeStyle;rounded=0;orthogonalLoop=1;jettySize=auto;html=1;" edge="1" parent="1" source="24lvV09j2VHUAjs1KWGv-19" target="24lvV09j2VHUAjs1KWGv-2">
          <mxGeometry relative="1" as="geometry">
            <Array as="points">
              <mxPoint x="100" y="530" />
              <mxPoint x="100" y="530" />
            </Array>
          </mxGeometry>
        </mxCell>
        <mxCell id="24lvV09j2VHUAjs1KWGv-19" value="print(fname + &quot; &quot; + lname + &quot;.&quot;)" style="shape=document;whiteSpace=wrap;html=1;boundedLbl=1;" parent="1" vertex="1">
          <mxGeometry x="15.629999999999999" y="430" width="168.75" height="100" as="geometry" />
        </mxCell>
        <mxCell id="24lvV09j2VHUAjs1KWGv-25" value="lname: str&lt;div&gt;&quot;what is your lname ?&quot;&lt;/div&gt;" style="shape=card;whiteSpace=wrap;html=1;" parent="1" vertex="1">
          <mxGeometry x="52.5" y="320" width="95" height="60" as="geometry" />
        </mxCell>
      </root>
    </mxGraphModel>
  </diagram>
</mxfile>
